<?xml version="1.0" encoding="UTF-8"?>
<!-- Generator: Adobe Illustrator 13.0.0, SVG Export Plug-In . SVG Version: 6.00 Build 14948)  -->
<!DOCTYPE svg PUBLIC "-//W3C//DTD SVG 1.1//EN" "http://www.w3.org/Graphics/SVG/1.1/DTD/svg11.dtd">
<svg version="1.1" id="Layer_1" xmlns="http://www.w3.org/2000/svg" xmlns:xlink="http://www.w3.org/1999/xlink" x="0px" y="0px" width="134px" height="12px" viewBox="0 0 134 12" enable-background="new 0 0 134 12" xml:space="preserve">
<path fill="#D34D4E" d="M90.367188,5.460938l43.208984,0.40918v0.296875L90.367188,6.463867  c-0.197266,1.585938-0.853516,2.892578-1.966797,3.918945c-1.115234,1.029297-2.441406,1.542969-3.978516,1.542969  c-1.857422,0-3.527344-0.631836-5.013672-1.895508C77.699219,11.34375,75.951172,12,74.167969,12  c-1.660156,0-3.230469-0.582031-4.716797-1.746094C68.015625,11.417969,66.342285,12,64.435547,12  c-1.213867,0-2.438477-0.334961-3.676758-1.00293c-1.238281-0.668945-2.328125-1.623047-3.269043-2.861328  c-0.891602,1.189453-1.981445,2.129883-3.269531,2.824219C52.932129,11.65332,51.619629,12,50.281738,12  c-1.683594,0-3.164551-0.526367-4.438477-1.578125c-1.277344-1.053711-2.039062-2.37207-2.287109-3.958008L0.424316,6.166992  V5.870117l43.131836-0.40918c0.198242-1.584961,0.88623-2.890625,2.063965-3.919922C46.79541,0.514648,48.163086,0,49.723145,0  c1.659668,0,3.34375,0.65625,5.052734,1.96875c0.96582-0.743164,1.777832-1.256836,2.435547-1.541992  C57.866699,0.143555,58.628906,0,59.495605,0c1.733887,0,3.330078,0.65625,4.791016,1.96875  C66.020508,0.65625,67.79248,0,69.599609,0c2.353516,0,4.707031,1.288086,7.058594,3.863281  C78.986328,1.288086,81.326172,0,83.679688,0c1.783203,0,3.289062,0.507812,4.517578,1.523438  C89.421875,2.538086,90.144531,3.851562,90.367188,5.460938z M55.22168,5.386719  c-2.080566-2.823242-4.160645-4.235352-6.241211-4.235352c-1.23877,0-2.297852,0.396484-3.175781,1.189453  c-0.880859,0.791992-1.392578,1.832031-1.541504,3.120117L55.22168,5.386719z M44.337891,6.463867  c0.222656,1.189453,0.921875,2.1875,2.099609,2.992188c1.175293,0.804688,2.531738,1.207031,4.067383,1.207031  c1.164062,0,2.37793-0.291016,3.641113-0.874023c1.262695-0.581055,2.253906-1.28125,2.97168-2.098633  c-0.074219-0.074219-0.236328-0.260742-0.484375-0.557617c-0.24707-0.296875-0.420898-0.469727-0.519531-0.519531  L44.337891,6.463867z M64.73291,5.386719c-1.288086-1.609375-2.37793-2.717773-3.269531-3.325195  c-0.891602-0.605469-1.857422-0.910156-2.897949-0.910156c-1.114746,0-2.253906,0.396484-3.417969,1.189453  c0.941406,0.767578,1.981445,1.783203,3.120605,3.045898H64.73291z M59.234375,6.613281  c1.164062,1.460938,2.253418,2.526367,3.269043,3.194336c1.015625,0.668945,2.055664,1.003906,3.121094,1.003906  c1.262695,0,2.391113-0.310547,3.381348-0.929688c-0.990234-0.816406-2.068848-1.90625-3.23291-3.268555H59.234375z   M74.761719,5.386719c-1.361328-1.55957-2.505859-2.643555-3.433594-3.250977  c-0.929688-0.605469-1.939453-0.910156-3.029297-0.910156c-1.163574,0-2.352539,0.347656-3.565918,1.040039  c1.064941,0.991211,1.623535,1.523438,1.672852,1.597656c0.396484,0.396484,0.704102,0.730469,0.927734,1.00293  c0.222656,0.273438,0.34668,0.421875,0.371094,0.446289L74.761719,5.386719z M79.037109,9.65918  c-1.089844-0.792969-2.130859-1.807617-3.121094-3.045898L68.892578,6.6875c1.287109,1.485352,2.421875,2.557617,3.402344,3.213867  c0.976562,0.65625,1.947266,0.984375,2.914062,0.984375C76.224609,10.885742,77.5,10.476562,79.037109,9.65918z M89.699219,5.460938  c-0.248047-1.238281-0.921875-2.229492-2.023438-2.97168c-1.103516-0.743164-2.412109-1.115234-3.921875-1.115234  c-2.378906,0-4.632812,0.966797-6.761719,2.898438c0.148438,0.172852,0.271484,0.314453,0.371094,0.427734  c0.099609,0.109375,0.296875,0.339844,0.59375,0.686523L89.699219,5.460938z M89.773438,6.463867L78.962891,6.613281  c1.460938,1.733398,2.585938,2.87793,3.378906,3.436523c0.792969,0.555664,1.722656,0.835938,2.787109,0.835938  c1.265625,0,2.316406-0.40918,3.158203-1.226562S89.625,7.777344,89.773438,6.463867z"/>
</svg>