<?xml version="1.0" encoding="UTF-8"?>
<!-- Generator: Adobe Illustrator 18.1.0, SVG Export Plug-In . SVG Version: 6.00 Build 0)  -->
<svg version="1.1" id="Layer_1" xmlns="http://www.w3.org/2000/svg" xmlns:xlink="http://www.w3.org/1999/xlink" x="0px" y="0px" width="284px" height="28px" viewBox="0 0 284 28" enable-background="new 0 0 284 28" xml:space="preserve">
<g>
	<path fill="#493016" d="M270.9,8.5c-0.8,0.2-1.8,0.5-3,0.8c-0.6-4.2-5.7-8.3-16.1-8.4C240.9,0.8,238,4.8,238,4.8s3.2-2.2,12.7-2.6   c10.4-0.5,15.7,3.9,16.4,6.5c0.1,0.2,0.1,0.5,0.2,0.8c-2.5,0.7-5.5,1.5-8.3,1.6c-4.3,0.2-6.5-2.3-6.5-2.3c2.4-3.5,0.4-4.9-0.5-5   c-0.9-0.1-2.2,0.7-1.9,2.3c0.3,1.6,1.3,2.6,1.3,2.6s-2.7,2.8-8.9,2.6c-6.2-0.2-11.3-4.3-11.3-4.3c-0.8-0.2-0.3,0.5-0.3,0.5   c6,4.8,11.1,5,15.7,4.3c3.2-0.5,5.2-2.6,5.2-2.6c3.9,4.1,9.8,3,15.4,1.4c-0.4,2.7-3.3,6-14.3,6.2c-13.9,0.2-21.9-7.4-21.9-7.4   c1.5,3.8,12.7,9.3,21.9,9c8.9-0.3,14.8-3.8,15-8c3.2-0.9,6.3-2,8.8-2.1c4-0.2,6.2,1.6,6.7,1.6c0.5,0,0.5-0.3,0.5-0.3   C278.4,5.8,273.3,8,270.9,8.5z M251.9,8.4c0,0-1.1-1.5-0.8-3.2c0.3-1.7,2.1-0.6,1.7,1C252.2,8.1,251.9,8.4,251.9,8.4z"/>
	<path fill="#493016" d="M212.2,4.3c-2.3,1.6-3.9,3.1-5,4.5c-3.5-1.8-8.3-3.2-15.2-3.9h-13.4c-0.1-0.3-0.4-0.4-0.7-0.4   c-0.3,0-0.5,0.1-0.7,0.3c-0.2-0.4-0.7-0.6-1.2-0.6c-0.6,0-1.1,0.3-1.3,0.7c-3-0.2-13.4-0.5-17.8,3.9c-3.3-2.1-7.2-1.6-10.2-0.3   c-1.2-0.9-2.5-1.8-3.8-2.8c0,0,1.5-1.2,1.5-2.4c0-1.2-0.9-2.4-2-2.4c-1.1,0-2,1.2-2,2.4c0,1.2,1.5,2.4,1.5,2.4   c-1.4,1-2.7,1.9-3.9,2.8c-3.1-1.3-7-1.8-10.3,0.2c-4.4-4.4-14.8-4.1-17.8-3.9c-0.2-0.4-0.7-0.7-1.3-0.7c-0.7,0-1.3,0.5-1.4,1.1   c-0.1-0.4-0.4-0.8-0.9-0.8c-0.3,0-0.6,0.2-0.7,0.4H92.1C85.2,5.6,80.3,7,76.8,8.8c-1.1-1.4-2.7-2.9-5-4.5c-7.3-5-15.4-3.3-17,1.3   c-1.6,4.6,4.6,7.4,8.2,3.3c0,0-2.3,2-5.3,0.9c-3-1.2-2.6-4.4-0.8-6c1.9-1.6,7.7-3.3,14.6,1.5c2,1.4,3.4,2.8,4.4,4   c-6.1,3.5-7.1,8-7,10.9c0.2,4.5,5.7,8.4,14.7,5.3c9-3.1,9-11.4,9-11.4c-4,13-19.2,13.4-22,8.7c-2.5-4.2,0.1-9.8,5.8-12.8   c1.7,2.4,1.8,4.1,1.8,4.1s-3.9,2.6-3.3,5.4c0.7,2.8,5.3,1.2,4.7-5.3c0,0,4.3-2.8,11-2.7c6.7,0.1,9.5,2.9,10.7,4.8   c1.2,1.8,2,4.3-0.2,6.4c0,0,4.6-1.7,0.3-7.5C97,9.3,86.7,9,79.2,13.2c0,0-0.3-1.5-1.8-3.6c5.9-2.8,12.2-3.8,15.8-3.8h12.3   c0.1,0.3,0.4,0.4,0.7,0.4c0.5,0,0.8-0.4,0.9-0.8c0.1,0.6,0.6,1,1.4,1c0.6,0,1.1-0.3,1.3-0.8h6.8c2.2,0,7.2,1,10.2,3.6   c-5.3,4-3.8,9.2-0.9,10.1c2.8,0.8,6.9-3.7,2.7-9.3c0.2-0.2,0.5-0.3,0.7-0.4c2.3-1.1,4.9-1.5,7.8-0.5c-2,1.6-3.4,3.1-4,5   c-0.9,2.7,0,7,4.2,7.4c0.1,0,0.2,0,0.2,0c0,4.2,1.9,5.7,4.9,5.7c2.3,0,4.3-2.1,4.3-5.7c0.1,0,0.3,0,0.4,0c4.2-0.3,5.1-4.6,4.2-7.4   c-0.6-1.9-2.1-3.5-4.1-5.1c2.8-1,5.5-0.6,7.7,0.6c0.3,0.1,0.5,0.3,0.7,0.4c-4.2,5.7,0,10.1,2.7,9.3c2.9-0.9,4.4-6.1-0.9-10.1   c3-2.6,8-3.6,10.2-3.6h6.8c0.2,0.4,0.7,0.8,1.3,0.8c0.5,0,1-0.2,1.2-0.6c0.2,0.2,0.4,0.4,0.7,0.4c0.3,0,0.6-0.2,0.7-0.4h12.3   c3.6,0,9.8,1,15.8,3.8c-1.6,2.2-1.8,3.6-1.8,3.6c-7.5-4.2-17.8-3.8-22.1,1.9c-4.3,5.8,0.3,7.5,0.3,7.5c-2.2-2.1-1.4-4.5-0.2-6.4   c1.2-1.8,4-4.7,10.7-4.8c6.7-0.1,11,2.7,11,2.7c-0.6,6.5,4,8.1,4.7,5.3c0.6-2.8-3.3-5.4-3.3-5.4s0.1-1.7,1.8-4.1   c5.7,3,8.2,8.7,5.8,12.8c-2.8,4.8-18,4.3-22-8.7c0,0,0,8.2,9,11.4c9,3.1,14.5-0.8,14.7-5.3c0.1-2.9-0.9-7.4-7-10.9   c1-1.2,2.4-2.6,4.4-4c6.9-4.8,12.7-3.1,14.6-1.5c1.9,1.6,2.3,4.8-0.8,6c-3,1.2-5.3-0.9-5.3-0.9c3.6,4,9.8,1.3,8.2-3.3   C227.6,1,219.5-0.7,212.2,4.3z M75.5,19.1c-0.7-2.3,3-4.4,3-4.4C79.3,18.6,76.3,21.5,75.5,19.1z M129.1,13.1   c0.9,5.5-2.5,5.8-3.7,4.7c-1.2-1.2-0.2-5.1,2.5-7.3C128.5,11.2,128.9,12.1,129.1,13.1z M141.3,2.2c0.4-1,2.1-0.7,2.1,0.6   c-0.1,1.8-1.3,2.3-1.3,2.3S140.7,3.5,141.3,2.2z M142.3,5.9c0,0,1.5,1.1,3.4,2.9c-1.5,0.8-2.7,1.7-3.5,2.5   c-0.7-0.8-1.9-1.7-3.4-2.5C140.7,7,142.3,5.9,142.3,5.9z M137.6,20.9c-3.5-0.3-3.9-5.6-1.3-9.1c0.6-0.8,1.3-1.6,1.9-2.3   c1.2,0.6,2.4,1.4,3.6,2.5c-1.6,1.2-4,3.8-4.2,8.6C137.6,20.7,137.6,20.8,137.6,20.9z M142.3,25c-1.5,0-3.3-0.6-3.7-3.6   c3-0.3,3.6-2.5,3.6-2.5s0.5,2,3.2,2.4C145.3,24.3,143.4,25,142.3,25z M142.6,17.4c0.2-0.2,0.4-0.5,0.4-0.8c0-0.5-0.4-1-1-1   c-0.5,0-1,0.4-1,1c0,0.5,0.4,0.9,0.9,1c-0.2,0.9-0.9,2.8-3.3,3.2c0-0.5,0-1.1,0.1-1.8c0.4-3.8,3.4-6.8,3.4-6.8s2.5,2.5,3.2,7.1   c0.1,0.5,0.1,1,0.1,1.4C143.2,20.2,142.7,18.2,142.6,17.4z M148.3,11.8c2.7,3.5,2.2,9-1.5,9.1c0-0.5-0.1-1-0.2-1.6   c-0.9-4.9-4-7.4-4-7.4c1.2-1.1,2.4-1.9,3.6-2.5C146.9,10.1,147.6,10.9,148.3,11.8z M158.9,17.7c-1.2,1.2-4.5,0.9-3.7-4.7   c0.2-1,0.6-1.9,1.2-2.7C159.2,12.7,160.1,16.6,158.9,17.7z M208.5,19.1c-0.7,2.3-3.8-0.6-3-4.4C205.5,14.7,209.2,16.8,208.5,19.1z"/>
	<path fill="#493016" d="M52.7,7c0,0-5.1,4.1-11.3,4.3c-6.2,0.2-8.9-2.6-8.9-2.6s1-1,1.3-2.6c0.3-1.6-0.9-2.4-1.9-2.3   c-0.9,0.1-2.9,1.4-0.5,5c0,0-2.2,2.5-6.5,2.3c-2.7-0.1-5.8-0.9-8.3-1.6c0-0.3,0.1-0.5,0.2-0.8c0.8-2.6,6.1-7,16.4-6.5   C42.7,2.7,46,4.8,46,4.8s-2.9-4-13.9-3.9C21.8,1,16.7,5.1,16.1,9.3c-1.2-0.3-2.2-0.6-3-0.8C10.7,8,5.6,5.8,0,9.6c0,0,0,0.3,0.5,0.3   S3.3,8,7.3,8.3c2.5,0.2,5.6,1.2,8.8,2.1c0.2,4.3,6.1,7.7,15,8c9.2,0.3,20.3-5.2,21.9-9c0,0-8,7.6-21.9,7.4   c-11-0.2-13.9-3.5-14.3-6.2c5.6,1.6,11.5,2.8,15.4-1.4c0,0,2,2.1,5.2,2.6c4.5,0.6,9.7,0.4,15.7-4.3C53,7.5,53.5,6.8,52.7,7z    M32.1,8.4c0,0-0.4-0.3-0.9-2.2c-0.4-1.6,1.4-2.7,1.7-1C33.2,6.9,32.1,8.4,32.1,8.4z"/>
</g>
</svg>