<?xml version="1.0" encoding="UTF-8" standalone="no"?>
<!DOCTYPE svg PUBLIC "-//W3C//DTD SVG 20010904//EN" "http://www.w3.org/TR/2001/REC-SVG-20010904/DTD/svg10.dtd">
<svg version="1.0" xmlns="http://www.w3.org/2000/svg" width="450.000000pt" height="450.000000pt" viewBox="0 0 450.000000 450.000000" preserveAspectRatio="xMidYMid meet">
<metadata>
Created by potrace 1.11, written by Peter Selinger 2001-2013
</metadata>
<g transform="translate(0.000000,450.000000) scale(0.100000,-0.100000)" fill="#000000" stroke="none">
<path d="M1965 4484 c-819 -117 -1490 -634 -1797 -1384 -49 -119 -99 -276 -114 -360 -2 -14 -7 -36 -10 -50 -7 -28 -7 -33 -25 -140 -14 -93 -20 -409 -8 -510 14 -129 19 -164 24 -190 3 -14 7 -36 10 -50 4 -22 30 -126 38 -155 52 -181 131 -367 229 -540 29 -50 141 -213 165 -240 10 -11 36 -43 58 -70 60 -74 209 -220 310 -303 50 -41 176 -128 248 -171 279 -168 592 -271 937 -310 72 -9 424 -6 485 3 17 3 50 8 75 11 184 27 441 106 617 190 108 51 251 130 263 146 3 3 16 12 29 19 14 7 30 17 35 21 6 5 45 35 86 66 101 77 129 103 233 207 173 174 290 339 407 571 105 207 175 426 216 670 25 149 24 565 -1 680 -3 11 -7 31 -9 45 -28 157 -67 292 -126 440 -229 575 -686 1032 -1257 1259 -112 44 -276 96 -339 105 -21 4 -55 11 -74 16 -19 5 -53 12 -75 15 -45 8 -583 15 -630 9z"/>
</g>
</svg>